<svg xmlns="http://www.w3.org/2000/svg" viewBox="0 0 349.51 513.01"><defs><style>.cls-1{fill:#fff;}</style></defs><g id="Layer_2" data-name="Layer 2"><g id="Layer_1-2" data-name="Layer 1"><path class="cls-1" d="M75.32,281.91c0-8.09,2.39-11.69,6.17-11.69,3.48,0,4.84,3.07,5.4,6.95l-1.43.21c-.49-3.5-1.64-5.83-4-5.83-3.22,0-4.78,3.88-4.78,10.33,0,6.67,1.56,10.45,4.81,10.45,2.45,0,3.69-2.1,4.25-6.08l1.4.19c-.62,4.4-2.27,7.23-5.65,7.23C77.49,293.67,75.32,290.16,75.32,281.91Z"/><path class="cls-1" d="M119.16,293.42h-1.33l5.46-23.05h1.3l5.46,23.05h-1.4l-1.76-7.69h-6Zm6-14.95c-.49-2.17-.9-3.91-1.27-6.14h-.06c-.37,2.29-.78,3.94-1.27,6.14l-1.4,6h5.37Z"/><path class="cls-1" d="M162.6,270.46H164v12.85c.25-.56,1.49-2.8,2.48-4.53l4.69-8.32h1.45l-5.11,9.06,6,13.9H172L166.64,281,164,285.63v7.79H162.6Z"/><path class="cls-1" d="M205.73,270.46h8.69v1.34h-7.26v8.75h5.21v1.33h-5.21v10.21h7.72v1.33h-9.15Z"/><path class="cls-1" d="M245.88,288.12l1.34-.41c.87,3,2.08,4.69,4.56,4.69s3.75-1.49,3.75-3.82c0-5.12-8.81-7.6-8.81-13.65a4.49,4.49,0,0,1,4.72-4.77c2.88,0,4.31,2,5.21,5l-1.33.4c-.78-2.66-1.87-4.09-3.91-4.09a3,3,0,0,0-3.23,3.35c0,5.65,8.78,7.66,8.78,13.68a5,5,0,0,1-5.21,5.21C248.61,293.73,247,291.81,245.88,288.12Z"/><path class="cls-1" d="M36.62,257.87l-.87-113.58a15.51,15.51,0,0,1,2.48-8.52,406.47,406.47,0,0,1,24.31-34.06c2.42,17.18,4.61,74,5.34,94.61.09,14,.74,28,.88,42,1.49-11.73,2.37-37.09,2.46-55.89a76.86,76.86,0,0,1,.44-7.73c8-76.87-.42-102.16-.42-102.16-25.79,23.75-39.4,41.42-51.64,61.42C19.43,92.44,9.8,23.52,9.8,23.52S-1,100.86.08,141c1,38.45-.9,129.2,8.42,237.4.14,1.56.22,3.13.25,4.69l.48,25c.07,3.44,0,6.89.18,10.34.57,13.43,1.31,26.85,1.74,40.28.3,9.24.15,18.49.28,27.74a54.33,54.33,0,0,0,.66,5.65,116,116,0,0,0,.71-16.51c-.23-16.27-.56-32.54-.77-48.82-.15-12.37,0-24.75-.29-37.13q-.09-4.06-.26-8.13a87.57,87.57,0,0,1,.23-10.37c6.55-79.66,7.08-149.29,7.4-194.67a32.4,32.4,0,0,1,4-15.28c2.56-4.69,5.17-9.22,7.76-13.55a1.43,1.43,0,0,1,2.65.72l1.16,61.52Z"/><path class="cls-1" d="M149.75,156.11c-5.07,5.5-19.07,21.67-19.07,32.42,0-10.75-14-26.92-19.07-32.42a10.08,10.08,0,0,1-2.47-4.82c-6.64-32.38-3.87-127.77-3.87-127.77-10.89,30.4-16.34,105.27-16.34,133.4,0,0,24.62,18.64,36,43.29a33.39,33.39,0,0,1,3.13,12.95c.4,11.91,2.12,23.78,3,35.68.47-8.73.33-17.44-.07-26.13a29.11,29.11,0,0,1,.16-5.28c4.49-32.64,41.28-60.51,41.28-60.51,0-28.13-5.44-103-16.33-133.4,0,0,2.77,95.39-3.87,127.77A10.08,10.08,0,0,1,149.75,156.11Z"/><path class="cls-1" d="M266.58,103.49c-14.47-14.6-31.94-59.43-39.82-80-8.45,20.42-19.4,70-44.47,83.37,0,0,28.4,14.3,64.38,44.93,0,0-16.34,14.46-19.91,27.73-9.87-26.2-42.92-24.33-42.92-24.33,23.06,6,36.17,29,40.88,50.69a46.61,46.61,0,0,1,1,9.12q.26,13.18.5,26.36a144,144,0,0,0,2-24.52,36.27,36.27,0,0,1,1.41-10.41c6.42-21.43,22.65-44.21,36.94-54.64,0,0-28.76-16-59.73-44.93,0,0,17.59-20.75,19.91-49.34C236.63,83.75,266.58,103.49,266.58,103.49Z"/><path class="cls-1" d="M127.94,27.39a14.82,14.82,0,0,0,2.35,3.92h.78a14.82,14.82,0,0,0,2.35-3.92,18.46,18.46,0,0,0,1.14-3.91,10.71,10.71,0,0,0,0-3.91c-.25-1.31-.59-2.61-.74-3.92l-.52-3.91-.64-3.91c-.48-2.61-.94-5.22-1.55-7.83h-.78c-.61,2.61-1.07,5.22-1.55,7.83l-.64,3.91-.52,3.91c-.15,1.31-.49,2.61-.74,3.92a10.71,10.71,0,0,0,0,3.91A18.46,18.46,0,0,0,127.94,27.39Z"/><path class="cls-1" d="M318.78,440.09c.42-13.55,1.54-19.43.65-31.09-.59-7.77,1.05-12.31.62-19.87a67.21,67.21,0,0,1,0-10.52c9-101.7,7.65-184.21,8.25-227.53a1.4,1.4,0,0,1,2.2-1.12c3.07,2,6.21,3.93,9,5.55A2.89,2.89,0,0,1,341,158c.1,3.31.31,6.68.26,9-.44,21.93,1.83,43.72,3,65.57,0,.7.87,8.18,1.34,8.86,0,0-.07-3.57-.05-6.79-.41-6.7-1.08-13.38-1.23-20.06-.3-13.77-.25-27.55-.5-41.32-.07-3.77,0-9-.19-13.55a1.15,1.15,0,0,1,1.7-1c2.53,1.33,4.15,2.12,4.15,2.12s-9.87-23.81-19.12-32.27c-.59-.54-1.23-1.15-1.9-1.81-1.1-41.79-9.68-103.2-9.68-103.2S312.46,69,310,108.27a253.11,253.11,0,0,0-39.43-31.14A234.41,234.41,0,0,0,286.45,102a9.23,9.23,0,0,1,1.75,4.65l1.5,17c.92,15.61,1.92,31.23,2.38,46.86.4,13.77.13,27.56.1,41.35,0,2.81-.36,5.61-.38,8.42-.06,6.66,0,13.32,0,20,.55-6.56,1.12-13.09,1.28-19.63.42-17,.91-34.1.91-51.15l-.86-55.83a1,1,0,0,1,1.8-.63c4,4.95,7.82,9.34,11.25,13.18A11.13,11.13,0,0,1,309,133.6c0,2.59,0,5.07.07,7.42,1,36.33-.7,119.36,7,219.67,0,2.54,0,5.08,0,7.62.05,6.55,1.25,13.09,1.45,19.65.55,17.38.79,34.76,1.26,52.13"/><path class="cls-1" d="M318.23,500.31c.07,4.24,1.24,8.47,1.91,12.7a17.16,17.16,0,0,0,.68-6.17c-.26-6.56-.68-13.11-.83-19.67-.21-8.45-.17-16.91-.34-25.36a43,43,0,0,0-.76-5.26Z"/><path class="cls-1" d="M39.11,374c-.16-19.41-.5-38.81-2.14-58.18A366,366,0,0,0,39.11,374Z"/><path class="cls-1" d="M347.19,304.14a237.34,237.34,0,0,0,1.14,33.09Z"/></g></g></svg>